<?xml version="1.0" ?><svg viewBox="0 0 512 512" xmlns="http://www.w3.org/2000/svg"><title/><g data-name="1" id="_1"><path d="M310.17,450H102a47.89,47.89,0,0,1-47.83-47.83V95.83A47.89,47.89,0,0,1,102,48H310.17A47.89,47.89,0,0,1,358,95.83V402.17A47.89,47.89,0,0,1,310.17,450ZM102,78A17.85,17.85,0,0,0,84.13,95.83V402.17A17.85,17.85,0,0,0,102,420H310.17A17.85,17.85,0,0,0,328,402.17V95.83A17.85,17.85,0,0,0,310.17,78Z"/><path d="M408.07,372H343a15,15,0,0,1-15-15V113a15,15,0,0,1,15-15h65.07a48.12,48.12,0,0,1,48.06,48.07V323.93A48.12,48.12,0,0,1,408.07,372ZM358,342h50.07a18.08,18.08,0,0,0,18.06-18.07V146.07A18.08,18.08,0,0,0,408.07,128H358Z"/><path d="M393,204a15,15,0,0,1-15-15V163a15,15,0,0,1,30,0v26A15,15,0,0,1,393,204Z"/><path d="M393,276a15,15,0,0,1-15-15V235a15,15,0,0,1,30,0v26A15,15,0,0,1,393,276Z"/><path d="M296.07,209h-180a15,15,0,0,1-15-15V114a15,15,0,0,1,15-15h180a15,15,0,0,1,15,15v80A15,15,0,0,1,296.07,209Zm-165-30h150V129h-150Z"/><path d="M140,269.73H116.07a15,15,0,1,1,0-30H140a15,15,0,0,1,0,30Z"/><path d="M296.07,269.73H272.13a15,15,0,1,1,0-30h23.94a15,15,0,0,1,0,30Z"/><path d="M218,269.73H194.1a15,15,0,1,1,0-30H218a15,15,0,0,1,0,30Z"/><path d="M140,374.27H116.07a15,15,0,0,1,0-30H140a15,15,0,0,1,0,30Z"/><path d="M296.07,374.27H272.13a15,15,0,0,1,0-30h23.94a15,15,0,0,1,0,30Z"/><path d="M218,374.27H194.1a15,15,0,0,1,0-30H218a15,15,0,0,1,0,30Z"/><path d="M140,322H116.07a15,15,0,0,1,0-30H140a15,15,0,0,1,0,30Z"/><path d="M296.07,322H272.13a15,15,0,0,1,0-30h23.94a15,15,0,0,1,0,30Z"/><path d="M218,322H194.1a15,15,0,0,1,0-30H218a15,15,0,0,1,0,30Z"/></g></svg>